<?xml version="1.0" standalone="no"?>
 <!DOCTYPE svg PUBLIC "-//W3C//DTD SVG 1.1//EN" 
 "http://www.w3.org/Graphics/SVG/1.1/DTD/svg11.dtd"> 
<svg
  xmlns:svg="http://www.w3.org/2000/svg"
  xmlns="http://www.w3.org/2000/svg"
  xmlns:xlink="http://www.w3.org/1999/xlink"
  version="1.1"
  width="297.0022mm" height="210.0072mm" viewBox="0.0000 0.0000 297.0022 210.0072">
<title>SVG Image created as HandymanSchematic_G0-User_2.svg date 2025/03/13 09:27:56 </title>
  <desc>Image generated by PCBNEW </desc>
<g style="fill:#000000; fill-opacity:1.0000;stroke:#000000; stroke-opacity:1.0000;
stroke-linecap:round; stroke-linejoin:round;"
 transform="translate(0 0) scale(1 1)">
<path style="fill:#000084; fill-opacity:1.0000; 
stroke:#000084; stroke-width:0.1000; stroke-opacity:1; 
stroke-linecap:round; stroke-linejoin:round;fill-rule:evenodd;"
d="M 58.2500,80.0750
82.2500,80.0750
82.2500,99.0750
58.2500,99.0750
Z" /> 
<path style="fill:#000084; fill-opacity:1.0000; 
stroke:#000084; stroke-width:0.1000; stroke-opacity:1; 
stroke-linecap:round; stroke-linejoin:round;fill-rule:evenodd;"
d="M -7.7750,0.4000
16.2250,0.4000
16.2250,19.4000
-7.7750,19.4000
Z" /> 
<path style="fill:none; 
stroke:#000084; stroke-width:0.1000; stroke-opacity:1; 
stroke-linecap:round; stroke-linejoin:round;fill:none"
d="M -8.9750,-8.9500
83.4250,-8.9500
83.4250,108.6500
-8.9750,108.6500
Z" /> 
<path style="fill:none; 
stroke:#000084; stroke-width:0.1000; stroke-opacity:1; 
stroke-linecap:round; stroke-linejoin:round;fill:none"
d="M 25.5000,88.2000
45.3000,88.2000
45.3000,105.4000
25.5000,105.4000
Z" /> 
<path style="fill:#000084; fill-opacity:1.0000; 
stroke:#000084; stroke-width:0.1000; stroke-opacity:1; 
stroke-linecap:round; stroke-linejoin:round;fill-rule:evenodd;"
d="M 58.2500,0.5000
82.2500,0.5000
82.2500,19.5000
58.2500,19.5000
Z" /> 
<path style="fill:#000084; fill-opacity:1.0000; 
stroke:#000084; stroke-width:0.1000; stroke-opacity:1; 
stroke-linecap:round; stroke-linejoin:round;fill-rule:evenodd;"
d="M -7.7500,80.0250
16.2500,80.0250
16.2500,99.0250
-7.7500,99.0250
Z" /> 
</g>
<g style="fill:none; 
stroke:#000084; stroke-width:0.1000; stroke-opacity:1; 
stroke-linecap:round; stroke-linejoin:round;">
<path d="M-2.9350 54.3700
L-2.9350 51.3700
" />
<path d="M-1.4350 52.8700
L-4.4350 52.8700
" />
<circle cx="-2.9350" cy="52.8700" r="1.5000" /> 
<path d="M-2.9350 64.3000
L-2.9350 61.3000
" />
<path d="M-1.4350 62.8000
L-4.4350 62.8000
" />
<circle cx="-2.9350" cy="62.8000" r="1.5000" /> 
<path d="M-0.5500 33.6000
L-0.5500 39.6000
" />
<path d="M2.4500 36.6000
L-3.5500 36.6000
" />
<circle cx="-0.5500" cy="36.6000" r="3.0000" /> 
<path style="fill:none; 
stroke:#000084; stroke-width:0.1000; stroke-opacity:1; 
stroke-linecap:round; stroke-linejoin:round;fill:none"
d="M 7.2475,31.0300
31.3475,31.0300
31.3475,43.7300
7.2475,43.7300
Z" /> 
<path d="M67.1500 43.2250
L67.1500 36.2250
" />
<path d="M70.6500 39.7250
L63.6500 39.7250
" />
<circle cx="67.1500" cy="39.7250" r="8.0000" /> 
<circle cx="67.1500" cy="39.7250" r="3.5000" /> 
<path d="M49.3000 43.1000
L49.3000 36.1000
" />
<path d="M52.8000 39.6000
L45.8000 39.6000
" />
<circle cx="49.3000" cy="39.6000" r="8.0000" /> 
<circle cx="49.3000" cy="39.6000" r="3.5000" /> 
<path style="fill:none; 
stroke:#C2C200; stroke-width:0.1000; stroke-opacity:1; 
stroke-linecap:round; stroke-linejoin:round;fill:none"
d="M -7.0000,21.3500
79.0000,21.3500
79.0000,75.3500
-7.0000,75.3500
Z" /> 
</g> 
</svg>
